<svg width="24" height="28" viewBox="0 0 24 28" fill="none" xmlns="http://www.w3.org/2000/svg">
    <rect width="24" height="28" fill="#404040"/>
    <path d="M16.2465 11.4556C16.0169 11.6708 15.7873 12.009 15.443 12.1627C14.3526 12.6239 13.2048 13.0236 12.057 13.4079C11.77 13.5001 11.33 13.4847 11.0431 13.3925C9.93353 13.0236 8.86225 12.6239 7.79097 12.2088C7.0449 11.9168 6.83447 11.5017 7.14055 10.8868C8.23096 8.7808 9.3405 6.67479 10.5074 4.59952C10.6605 4.30745 11.2152 4 11.5787 4C11.9422 4 12.497 4.30745 12.65 4.58415C13.8169 6.65942 14.9073 8.76543 16.036 10.8714C16.0934 11.0098 16.1317 11.1635 16.2465 11.4556Z" fill="url(#paint0_linear_2_669)"/>
    <path d="M16.1698 15.7473C16.1315 15.8549 16.0742 16.0701 15.9594 16.2546C14.9072 18.3913 13.8168 20.5281 12.7647 22.6649C12.5351 23.126 12.2481 23.5103 11.5595 23.495C10.8708 23.495 10.5838 23.1107 10.3543 22.6495C9.32124 20.5127 8.24996 18.3913 7.17868 16.2546C6.94912 15.7934 6.8726 15.363 7.36998 14.994C7.84823 14.6405 8.36474 14.7327 8.90038 14.9326C9.7995 15.2707 10.7369 15.8088 11.6551 15.8088C12.5542 15.8088 13.4342 15.2246 14.3333 14.9018C15.2898 14.5636 16.1507 14.9172 16.1698 15.7473Z" fill="url(#paint1_linear_2_669)"/>
    <defs>
    <linearGradient id="paint0_linear_2_669" x1="7.005" y1="8.6573" x2="17.5021" y2="8.6573" gradientUnits="userSpaceOnUse">
    <stop stop-color="#ABFFFC"/>
    <stop offset="1" stop-color="#7DFE95"/>
    </linearGradient>
    <linearGradient id="paint1_linear_2_669" x1="7" y1="19.0539" x2="17.4157" y2="19.0539" gradientUnits="userSpaceOnUse">
    <stop stop-color="#ABFFFC"/>
    <stop offset="1" stop-color="#7DFE95"/>
    </linearGradient>
    </defs>
</svg>
