<svg width="15" height="15" viewBox="0 0 15 15" fill="none" xmlns="http://www.w3.org/2000/svg">
<path d="M1.39344 7.91568C0.526932 7.61123 0 7.0199 0 6.09484C0 5.16978 0.521077 4.57845 1.39344 4.274C1.39344 3.64168 1.39344 3.01521 1.39344 2.38875C1.39344 1.79156 1.39344 1.18852 1.39344 0.591327C1.39344 0.22833 1.5808 -7.52322e-06 1.87354 0.00584728C2.16628 0.0117021 2.34777 0.234185 2.34777 0.603037C2.34777 1.82669 2.34777 3.04449 2.34777 4.27985C3.24356 4.60187 3.77635 5.21662 3.74122 6.17681C3.71194 7.06088 3.19672 7.6288 2.34777 7.92154C2.34777 8.0035 2.34777 8.09133 2.34777 8.17329C2.34777 10.2049 2.34777 12.2424 2.34777 14.274C2.34777 14.3325 2.34777 14.3911 2.34777 14.4496C2.34192 14.7775 2.15457 15 1.87939 15C1.59836 15.0058 1.3993 14.7775 1.3993 14.4379C1.3993 12.3536 1.3993 10.2693 1.3993 8.17915C1.39344 8.09133 1.39344 8.0035 1.39344 7.91568ZM2.79859 6.10069C2.79859 5.57962 2.39461 5.16978 1.87354 5.16978C1.35831 5.16978 0.948478 5.56791 0.948478 6.08313C0.942623 6.61006 1.3466 7.02575 1.86183 7.02575C2.3829 7.02575 2.79859 6.62177 2.79859 6.10069Z" fill="#404040"/>
<path d="M12.6344 7.9098C12.0372 7.72245 11.604 7.35945 11.3698 6.79154C10.9834 5.84891 11.4342 4.75992 12.3944 4.37936C12.5876 4.30325 12.6403 4.20372 12.6403 4.00465C12.6286 2.89224 12.6344 1.77983 12.6344 0.667417C12.6344 0.603014 12.6286 0.532757 12.6344 0.468354C12.6578 0.204888 12.8569 0.00582457 13.1028 -3.02338e-05C13.3546 -0.00588503 13.5653 0.199033 13.5829 0.474209C13.5888 0.538611 13.5829 0.603014 13.5829 0.673272C13.5829 1.79154 13.5829 2.90981 13.5829 4.03393C13.5829 4.11589 13.5829 4.19201 13.5829 4.27397C14.4611 4.58428 14.9881 5.18147 14.9763 6.11824C14.9646 7.03158 14.4494 7.61706 13.5829 7.92151C13.5829 8.00934 13.5829 8.09716 13.5829 8.18498C13.5829 10.2342 13.5829 12.2833 13.5829 14.3325C13.5829 14.3969 13.5888 14.4672 13.5829 14.5316C13.5595 14.8068 13.3546 15.0117 13.1028 15.0058C12.851 15.0058 12.652 14.8009 12.6344 14.5199C12.6286 14.4555 12.6344 14.3911 12.6344 14.3208C12.6344 12.2775 12.6344 10.24 12.6344 8.19669C12.6344 8.10301 12.6344 8.01519 12.6344 7.9098ZM14.0396 6.10067C14.0396 5.57959 13.6356 5.1639 13.1145 5.1639C12.5993 5.1639 12.1895 5.56203 12.1836 6.0714C12.1777 6.59833 12.5817 7.01402 13.0969 7.01987C13.6239 7.02573 14.0396 6.62175 14.0396 6.10067Z" fill="#404040"/>
<path d="M7.96856 3.96368C7.96856 5.09952 7.97441 6.22949 7.9627 7.36532C7.9627 7.51169 8.00954 7.5761 8.1442 7.62879C8.88191 7.90397 9.362 8.59483 9.36786 9.36181C9.37371 10.1346 8.88776 10.8372 8.1442 11.1183C7.99783 11.1709 7.9627 11.2412 7.9627 11.3876C7.96856 12.4122 7.96856 13.4368 7.9627 14.4613C7.9627 14.8887 7.59385 15.1288 7.25427 14.9356C7.06106 14.8243 7.00837 14.6428 7.00837 14.4321C7.00837 13.4309 7.00251 12.4297 7.01422 11.4227C7.01422 11.2471 6.96739 11.1709 6.80345 11.1065C6.07745 10.8314 5.60907 10.1346 5.60907 9.37352C5.60907 8.6124 6.07745 7.90982 6.80345 7.6405C6.9908 7.57024 7.02008 7.47657 7.01422 7.30678C7.00837 5.11123 7.00837 2.91567 7.00837 0.720124C7.00837 0.661576 7.00837 0.603028 7.00837 0.54448C7.01422 0.216611 7.20158 -0.00587143 7.47675 -0.00587143C7.75778 -0.0117262 7.95685 0.216611 7.95685 0.55619C7.95685 1.4871 7.95685 2.41216 7.95685 3.34308C7.96856 3.55385 7.96856 3.75877 7.96856 3.96368ZM8.41938 9.39108C8.42523 8.86415 8.02125 8.45432 7.50017 8.44846C6.99081 8.44261 6.56926 8.84659 6.5634 9.3501C6.55755 9.88289 6.97324 10.3161 7.49432 10.3103C7.99783 10.3103 8.41352 9.8946 8.41938 9.39108Z" fill="#404040"/>
</svg>
