<svg width="15" height="14" viewBox="0 0 15 14" fill="none" xmlns="http://www.w3.org/2000/svg">
<path d="M0 8.54956C0.359941 8.54956 0.719882 8.54956 1.09696 8.54956C1.09696 8.60098 1.09696 8.65583 1.09696 8.70725C1.09696 9.88649 1.09696 11.0657 1.09696 12.2415C1.09696 12.6872 1.30607 12.8963 1.75171 12.8963C5.26543 12.8963 8.77914 12.8963 12.2894 12.8963C12.7351 12.8963 12.9442 12.6872 12.9442 12.2415C12.9442 11.0692 12.9442 9.89334 12.9442 8.72096C12.9442 8.66611 12.9442 8.61126 12.9442 8.54956C13.3144 8.54956 13.6778 8.54956 14.0411 8.54956C14.0411 9.89334 14.0411 11.2371 14.0411 12.5809C14.0137 12.67 13.9931 12.7626 13.9623 12.8517C13.7292 13.5647 13.1053 14.0001 12.3237 14.0001C8.78942 14.0001 5.25171 14.0001 1.71743 14.0001C1.6763 14.0001 1.63516 14.0001 1.59403 13.9967C0.911851 13.9453 0.414789 13.6162 0.133692 12.9888C0.0754163 12.8586 0.0445642 12.7146 0.00342801 12.5775C0 11.2371 0 9.89334 0 8.54956Z" fill="white"/>
<path d="M7.02066 0C8.15191 1.13124 9.28315 2.25906 10.4041 3.38002C10.1573 3.62684 9.90019 3.88051 9.64309 4.14104C8.96777 3.46572 8.2856 2.78355 7.57257 2.07052C7.57257 4.94319 7.57257 7.77816 7.57257 10.62C7.20235 10.62 6.84926 10.62 6.47904 10.62C6.47904 7.78502 6.47904 4.95348 6.47904 2.11851C5.79001 2.80754 5.10783 3.48972 4.43937 4.15818C4.15485 3.87708 3.89775 3.62341 3.64407 3.37316C4.7616 2.25906 5.88942 1.12782 7.02066 0Z" fill="white"/>
</svg>
