<svg width="16" height="14" viewBox="0 0 16 14" fill="none" xmlns="http://www.w3.org/2000/svg">
    <path d="M7.99984 2.07137C7.20958 1.25231 6.05107 0.75 4.8862 0.75C4.75873 0.75 4.63635 0.757188 4.51811 0.769173L4.51811 0.769168L4.5166 0.76933C3.1333 0.918005 2.116 1.39114 1.4608 2.25054L1.46077 2.25059C0.811285 3.10288 0.61705 4.23775 0.836821 5.58741L0.836869 5.5877C1.00438 6.60883 1.73745 7.70485 2.63948 8.75428C3.5454 9.80823 4.65743 10.8545 5.63866 11.7777L5.64869 11.7871L5.64884 11.7873L5.69383 11.8295C6.24451 12.348 6.71077 12.7872 7.01279 13.1117C7.04303 13.1455 7.15983 13.272 7.32756 13.3931C7.49394 13.5132 7.74367 13.6522 8.02789 13.6522C8.31474 13.6522 8.56368 13.5105 8.72785 13.3889C8.88806 13.2703 8.99943 13.147 9.03176 13.1092C9.35333 12.7613 9.87698 12.2651 10.4036 11.7672L10.4039 11.7669L10.4107 11.7605C11.3817 10.8392 12.4828 9.79461 13.3796 8.74256C14.2716 7.69615 14.9965 6.60366 15.1622 5.58684L7.99984 2.07137ZM7.99984 2.07137C8.78973 1.25228 9.94919 0.750069 11.1144 0.750069C11.242 0.750069 11.3652 0.75748 11.481 0.769247L11.4824 0.769389V0.769393C12.8675 0.91798 13.8854 1.39106 14.5403 2.25089L7.99984 2.07137ZM13.7434 2.85807C14.1948 3.45151 14.3576 4.3013 14.173 5.42495L14.1729 5.42531C14.045 6.21067 13.4293 7.15389 12.5679 8.15265C11.7149 9.14163 10.6588 10.1437 9.70447 11.0488L13.7434 2.85807ZM13.7434 2.85807C13.2879 2.26059 12.5345 1.89014 11.3778 1.76585C11.293 1.75728 11.2048 1.75198 11.1144 1.75198C10.0454 1.75198 8.98383 2.30349 8.41462 3.14393L8.41444 3.14419L8.20659 3.45024L7.99991 3.75457L7.79304 3.45037L7.58491 3.14432L7.58465 3.14393C7.0154 2.30345 5.95409 1.75198 4.88606 1.75198C4.79536 1.75198 4.70789 1.75725 4.62098 1.76588C3.46606 1.89046 2.7125 2.26091 2.25788 2.85779L2.25783 2.85787C1.80584 3.45084 1.64269 4.3008 1.82542 5.42579C1.95492 6.21363 2.57766 7.15964 3.44769 8.16025C4.30925 9.15111 5.37501 10.1539 6.33527 11.0571L6.33572 11.0575L6.38051 11.0999C6.93397 11.6208 7.42093 12.0794 7.75262 12.4359L7.75592 12.4395L7.75589 12.4395C7.79687 12.4853 7.86336 12.5457 7.93151 12.5929C7.96523 12.6162 7.99439 12.6328 8.0168 12.6428C8.02072 12.6446 8.02408 12.6459 8.0269 12.647C8.02957 12.6459 8.03273 12.6445 8.0364 12.6428C8.05874 12.6323 8.08757 12.615 8.12047 12.5911C8.18739 12.5424 8.24847 12.4833 8.27812 12.4484L8.28464 12.4408L8.28479 12.4409C8.63144 12.0647 9.16402 11.5605 9.67344 11.0781L9.70434 11.0489L13.7434 2.85807ZM15.1622 5.58661C15.3832 4.23804 15.19 3.10372 14.5403 2.25091L15.1622 5.58661Z" fill="" stroke="#DC3C3C" stroke-width="0.5"/>
</svg>
