<svg width="10" height="10" viewBox="0 0 10 10" fill="none" xmlns="http://www.w3.org/2000/svg">
    <path d="M10 5.85822V9.55586H7.85621V6.10603C7.85621 5.23982 7.54668 4.64827 6.77048 4.64827C6.17814 4.64827 5.82625 5.04652 5.67084 5.43215C5. 61441 5.56996 5.59986 5.76134 5.59986 5.95463V9.5557H3.45591C3.45591 9.5557 3.48468 3.71283 3.45591 3.10801H5.60002V4.02171C5.5957 4.02891 5.58963   4.03594 5.58579 4.04282H5.60002V4.02171C5.88492 3.58333 6.39301 2.95661 7.53214 2.95661C8.94257 2.95661 10 3.87814 10 5.85822ZM1.21315 0C0.479791     0 0 0.48139 0 1.11386C0 1.73291 0.465882 2.22821 1.18501 2.22821H1.19892C1.94667 2.22821 2.41159 1.73291 2.41159 1.11386C2.39736 0.48139 1.94666 0  1.21315 0ZM0.127422 9.55586H2.27058V3.10801H0.127422V9.55586Z" fill="#7D8088"/>
</svg>
