<svg width="10" height="10" viewBox="0 0 10 10" fill="none" xmlns="http://www.w3.org/2000/svg">
<path d="M3.04662 6.83968C2.63951 6.83212 2.27016 6.6677 1.99715 6.40422C2.05866 6.39222 2.11945 6.37797 2.17939 6.36155L2.14564 5.3891C1.67832 5.2953 1.2868 4.99092 1.07397 4.5794C1.15329 4.58947 1.23371 4.59587 1.31504 4.59842L3.05991 4.65322L1.60862 3.683C1.19155 3.40419 0.918067 2.92898 0.918067 2.391C0.918067 2.36923 0.918513 2.34758 0.919397 2.32605C1.97537 3.30333 3.36536 3.92574 4.89973 4.00271L5.56307 4.03598L5.41161 3.38931C5.38529 3.27696 5.37139 3.15871 5.37139 3.03575C5.37139 2.17906 6.06631 1.48413 6.92301 1.48413C7.3701 1.48413 7.77299 1.67221 8.05641 1.97405L8.24589 2.17585L8.51749 2.12238C8.56229 2.11356 8.60687 2.10409 8.65121 2.09399L8.79599 2.51808C8.75909 2.54693 8.72163 2.57506 8.68364 2.60245L8.46429 2.76056L8.47652 3.03068C8.48015 3.11087 8.48198 3.19192 8.48198 3.27337C8.48198 5.76975 6.5847 8.61091 3.14459 8.61091C2.73798 8.61091 2.34227 8.56522 1.96207 8.47881C2.4678 8.30942 2.93473 8.05524 3.34574 7.73314L4.45254 6.86579L3.04662 6.83968Z" fill="#7D8088" stroke="#7D8088"/>
</svg>
