<svg width="13" height="19" viewBox="0 0 13 19" fill="none" xmlns="http://www.w3.org/2000/svg">
<path d="M1.1919 16.8285C1.00676 16.6911 0.793799 16.5812 0.64147 16.4131C0.309244 16.0491 0.222591 15.6022 0.333957 15.1294C0.963125 12.4584 1.59229 9.78743 2.2255 7.1174C2.36542 6.5234 2.70023 6.04354 3.17123 5.65548C3.8146 5.13316 4.45892 4.60679 5.09516 4.07852C5.59897 3.6598 6.16713 3.5292 6.80368 3.68768C6.98052 3.7336 7.15927 3.77144 7.36131 3.81903C7.37654 3.75438 7.38986 3.69781 7.40319 3.64124C7.57738 2.90177 7.75061 2.16634 7.9248 1.42687C7.94383 1.34605 7.9719 1.2631 8.01328 1.19607C8.10008 1.06298 8.2344 1.01785 8.39199 1.05497C8.54055 1.09423 8.63251 1.19266 8.65173 1.34646C8.66288 1.42586 8.64694 1.51167 8.6279 1.59249C8.45966 2.32483 8.28238 3.0593 8.1101 3.79069C8.09677 3.84726 8.08249 3.90788 8.06441 3.98465C8.26645 4.03224 8.45233 4.07603 8.6382 4.11981C9.2574 4.2614 9.69826 4.61689 9.96197 5.19934C10.3119 5.97697 10.6619 6.75461 11.0078 7.53129C11.2705 8.11778 11.316 8.72134 11.1685 9.34767C10.5527 11.9621 9.93373 14.5715 9.32193 17.1869C9.13822 17.9667 8.51602 18.4173 7.82573 18.3784C7.80861 18.3786 7.79459 18.3838 7.77652 18.3881C5.5883 17.8641 3.3901 17.3463 1.1919 16.8285ZM7.19878 4.52713C7.0129 4.48334 6.84223 4.44741 6.66943 4.40244C6.24087 4.28443 5.86955 4.37609 5.52503 4.66173C4.90377 5.18073 4.28037 5.6907 3.65293 6.19972C3.25849 6.51625 3.01332 6.92338 2.89814 7.41232C2.2842 10.0187 1.67336 12.63 1.05134 15.2344C0.948537 15.6708 1.14953 16.0849 1.64751 16.198C3.65461 16.658 5.65885 17.1301 7.66023 17.6143C8.16034 17.7364 8.52506 17.4555 8.63071 17.007C9.23562 14.4028 9.85265 11.8014 10.4656 9.19916C10.5808 8.71022 10.5431 8.23646 10.3314 7.77715C10.0086 7.06561 9.68975 6.35502 9.37092 5.64442C9.09462 5.02488 8.58885 4.70956 7.89521 4.72103C7.82383 5.02409 7.74744 5.33024 7.68319 5.63925C7.67176 5.68774 7.72024 5.77166 7.76492 5.79925C8.68351 6.40801 8.70483 7.67548 7.79923 8.31517C7.3235 8.65094 6.66694 8.64982 6.14288 8.32165C5.66754 8.02202 5.3891 7.39345 5.48836 6.84532C5.61666 6.13769 6.10978 5.6738 6.83149 5.57937C6.87975 5.57368 6.94964 5.53043 6.96225 5.49502C7.05052 5.17461 7.12072 4.85847 7.19878 4.52713ZM6.22192 6.88163C6.11698 7.30901 6.36624 7.71745 6.78957 7.82144C7.20577 7.91948 7.61327 7.67426 7.71939 7.25996C7.82242 6.84067 7.57816 6.42913 7.1679 6.32396C6.73649 6.21807 6.32899 6.46329 6.22192 6.88163Z" fill="#404040"/>
<path d="M5.21208 11.7825C5.13783 12.0977 5.31342 12.4205 5.62788 12.5159C6.05763 12.647 6.4051 12.8739 6.60325 13.3001C6.98077 14.1056 6.46232 15.0753 5.57682 15.1951C5.45321 15.2129 5.40447 15.2569 5.38994 15.3729C5.37708 15.4637 5.35519 15.5566 5.32521 15.6477C5.25742 15.845 5.08458 15.945 4.90179 15.9062C4.71092 15.8655 4.56335 15.6772 4.63114 15.4799C4.73676 15.1764 4.65384 15.0033 4.40929 14.7922C4.07514 14.5087 3.97992 14.0982 4.03233 13.6584C4.06306 13.4012 4.23615 13.2458 4.45911 13.277C4.66187 13.3034 4.78425 13.4901 4.75138 13.7382C4.71661 13.9945 4.7931 14.213 5.00058 14.3642C5.1969 14.5085 5.41772 14.5307 5.64381 14.4219C5.86491 14.3162 5.99332 14.1331 6.00098 13.8833C6.00842 13.6164 5.89485 13.4105 5.64956 13.293C5.48128 13.2107 5.29636 13.1629 5.13497 13.0694C4.63467 12.7852 4.38498 12.1976 4.50398 11.6199C4.60965 11.0989 5.07187 10.6576 5.60959 10.5838C5.74223 10.5639 5.80405 10.5187 5.81835 10.3856C5.82621 10.2979 5.85119 10.2099 5.87926 10.127C5.94611 9.93375 6.12085 9.82564 6.30364 9.86443C6.49047 9.90417 6.64113 10.0975 6.57428 10.2907C6.46177 10.6054 6.56584 10.7792 6.80635 10.9894C7.14264 11.2819 7.23191 11.6995 7.16548 12.1445C7.13238 12.3756 6.95811 12.5179 6.75939 12.4924C6.54046 12.4622 6.41832 12.2927 6.4462 12.0476C6.4867 11.6946 6.34936 11.4447 6.05273 11.3279C5.69857 11.2019 5.29965 11.4107 5.21208 11.7825Z" fill="#404040"/>
</svg>
