<svg width="15" height="15" viewBox="0 0 15 15" fill="none" xmlns="http://www.w3.org/2000/svg">
<path d="M14.4136 2.3952C14.4136 1.03156 13.488 0.00706547 12.2657 0C10.3085 0 8.34432 0 6.38719 0C5.16486 0 4.24635 1.03156 4.23928 2.3952C4.23928 2.81206 4.23928 3.22892 4.23928 3.64578C4.5219 3.64578 4.80452 3.64578 5.08714 3.64578C5.08714 3.26425 5.08714 2.88271 5.08714 2.50118C5.08714 1.54734 5.61705 0.946773 6.47197 0.946773C8.37965 0.946773 10.2873 0.946773 12.195 0.946773C13.0287 0.946773 13.5657 1.54734 13.5657 2.48705C13.5657 4.61375 13.5657 6.74753 13.5657 8.87423C13.5657 9.81394 13.0287 10.4074 12.195 10.4145C11.5238 10.4145 10.8455 10.4145 10.1743 10.4145C10.1743 10.7325 10.1743 11.0433 10.1743 11.3613C10.8738 11.3613 11.5732 11.3613 12.2727 11.3613C13.4951 11.3542 14.4136 10.3297 14.4206 8.96609C14.4136 6.76872 14.4136 4.58549 14.4136 2.3952Z" fill="#404040"/>
<path d="M5.08714 4.58551C6.04098 4.58551 7.00189 4.58551 7.95573 4.58551C8.78945 4.58551 9.32643 5.18607 9.32643 6.12578C9.32643 7.553 9.32643 8.98023 9.32643 10.4075C9.60905 10.4075 9.89166 10.4075 10.1743 10.4075C10.1743 8.95197 10.1743 7.49648 10.1743 6.03393C10.1743 4.67029 9.24871 3.6458 8.02638 3.63873C7.04428 3.63873 6.06924 3.63873 5.08714 3.63873C5.08714 3.95668 5.08714 4.27463 5.08714 4.58551Z" fill="#404040"/>
<path d="M9.32642 11.3542C9.32642 11.7428 9.32642 12.1314 9.32642 12.513C9.32642 13.4527 8.78945 14.0462 7.95572 14.0532C6.04805 14.0532 4.14037 14.0532 2.23269 14.0532C1.37777 14.0532 0.847857 13.4527 0.847857 12.4988C0.847857 11.4319 0.847857 10.3721 0.847857 9.30524C0.847857 8.25249 0.847857 7.19973 0.847857 6.13991C0.847857 5.18607 1.37777 4.58551 2.23269 4.58551C2.90391 4.58551 3.57513 4.58551 4.23928 4.58551C4.23928 4.26756 4.23928 3.95668 4.23928 3.63873C3.5398 3.63873 2.84032 3.63873 2.14084 3.63873C0.925577 3.6458 0 4.67736 0 6.04099C0 8.23129 0 10.4145 0 12.6048C0 13.9685 0.925577 14.9929 2.1479 15C3.13 15 4.10504 15 5.08714 15C6.06924 15 7.04428 15 8.02638 15C9.2487 14.9929 10.1672 13.9685 10.1743 12.6048C10.1743 12.188 10.1743 11.7711 10.1743 11.3542C9.89166 11.3542 9.60904 11.3542 9.32642 11.3542Z" fill="#404040"/>
<path d="M5.08714 4.58551C5.08714 4.26756 5.08714 3.95668 5.08714 3.63873C4.80452 3.63873 4.5219 3.63873 4.23928 3.63873C4.23928 3.95668 4.23928 4.26756 4.23928 4.58551C4.5219 4.58551 4.80452 4.58551 5.08714 4.58551Z" fill="#404040"/>
<path d="M9.32642 10.4075C9.32642 10.7184 9.32642 11.0363 9.32642 11.3472C9.60904 11.3472 9.89166 11.3472 10.1743 11.3472C10.1743 11.0292 10.1743 10.7184 10.1743 10.4004C9.89166 10.4075 9.60904 10.4075 9.32642 10.4075Z" fill="#404040"/>
</svg>
