<svg width="11" height="12" viewBox="0 0 11 12" fill="none" xmlns="http://www.w3.org/2000/svg">
<path d="M5.50044 0.989925C3.24765 0.989925 1.1084 0.789525 0.291289 2.88659C-0.0462261 3.75271 0.0027881 4.87756 0.0027881 6.4882C0.0027881 7.90155 -0.0425035 9.22989 0.291289 10.0892C1.10654 12.1875 3.26316 11.9865 5.4992 11.9865C7.65644 11.9865 9.8807 12.2111 10.7077 10.0892C11.0459 9.21438 10.9962 8.10629 10.9962 6.4882C10.9962 4.34026 11.1147 2.95359 10.073 1.91251C9.01829 0.857773 7.59192 0.989925 5.49796 0.989925H5.50044ZM5.00782 1.98076C9.70697 1.97331 10.3051 1.45091 9.975 8.70811C9.85774 11.2748 7.90338 10.9932 5.50106 10.9932C1.12081 10.9932 0.99486 10.8678 0.99486 6.48572C0.99486 2.05273 1.3423 1.98324 5.00782 1.97952V1.98076ZM8.43509 2.89341C8.07089 2.89341 7.77557 3.18874 7.77557 3.55293C7.77557 3.91713 8.07089 4.21245 8.43509 4.21245C8.79928 4.21245 9.09461 3.91713 9.09461 3.55293C9.09461 3.18874 8.79928 2.89341 8.43509 2.89341ZM5.50044 3.66461C3.94129 3.66461 2.67747 4.92905 2.67747 6.4882C2.67747 8.04735 3.94129 9.31117 5.50044 9.31117C7.05959 9.31117 8.32279 8.04735 8.32279 6.4882C8.32279 4.92905 7.05959 3.66461 5.50044 3.66461ZM5.50044 4.65544C7.92323 4.65544 7.92633 8.32096 5.50044 8.32096C3.07827 8.32096 3.07455 4.65544 5.50044 4.65544Z" fill="#7D8088"/>
</svg>
