<svg width="12" height="9" viewBox="0 0 12 9" fill="none" xmlns="http://www.w3.org/2000/svg">
<path d="M0.816171 4.31359L0.8 4.35132V4.39238V4.39281V4.39324V4.39367V4.3941V4.39453V4.39497V4.3954V4.39583V4.39626V4.39669V4.39712V4.39756V4.39799V4.39842V4.39885V4.39928V4.39971V4.40014V4.40057V4.40101V4.40144V4.40187V4.4023V4.40273V4.40316V4.40359V4.40402V4.40445V4.40488V4.40531V4.40574V4.40617V4.4066V4.40703V4.40746V4.40789V4.40832V4.40875V4.40918V4.40961V4.41004V4.41047V4.4109V4.41133V4.41176V4.41219V4.41262V4.41305V4.41348V4.41391V4.41434V4.41477V4.4152V4.41563V4.41606V4.41649V4.41691V4.41734V4.41777V4.4182V4.41863V4.41906V4.41949V4.41992V4.42034V4.42077V4.4212V4.42163V4.42206V4.42249V4.42292V4.42334V4.42377V4.4242V4.42463V4.42506V4.42548V4.42591V4.42634V4.42677V4.4272V4.42762V4.42805V4.42848V4.42891V4.42933V4.42976V4.43019V4.43062V4.43104V4.43147V4.4319V4.43232V4.43275V4.43318V4.43361V4.43403V4.43446V4.43489V4.43531V4.43574V4.43617V4.43659V4.43702V4.43745V4.43787V4.4383V4.43873V4.43915V4.43958V4.44V4.44043V4.44086V4.44128V4.44171V4.44213V4.44256V4.44299V4.44341V4.44384V4.44426V4.44469V4.44511V4.44554V4.44597V4.44639V4.44682V4.44724V4.44767V4.44809V4.44852V4.44894V4.44937V4.44979V4.45022V4.45064V4.45107V4.45149V4.45192V4.45234V4.45277V4.45319V4.45361V4.45404V4.45446V4.45489V4.45531V4.45574V4.45616V4.45658V4.45701V4.45743V4.45786V4.45828V4.4587V4.45913V4.45955V4.45998V4.4604V4.46082V4.46125V4.46167V4.46209V4.46252V4.46294V4.46336V4.46379V4.46421V4.46463V4.46506V4.46548V4.4659V4.46632V4.46675V4.46717V4.46759V4.46802V4.46844V4.46886V4.46928V4.46971V4.47013V4.47055V4.47097V4.4714V4.47182V4.47224V4.47266V4.47308V4.47351V4.47393V4.47435V4.47477V4.47519V4.47562V4.47604V4.47646V4.47688V4.4773V4.47772V4.47815V4.47857V4.47899V4.47941V4.47983V4.48025V4.48067V4.48109V4.48151V4.48194V4.48236V4.48278V4.4832V4.48362V4.48404V4.48446V4.48488V4.4853V4.48572V4.48614V4.48656V4.48698V4.4874V4.48782V4.48824V4.48866V4.48908V4.4895V4.48992V4.49034V4.49076V4.49118V4.4916V4.49202V4.49244V4.49286V4.49328V4.4937V4.49412V4.49454V4.49496V4.49538V4.4958V4.49622V4.49664V4.49706V4.49747V4.49789V4.49831V4.49873V4.49915V4.49957V4.49999V4.50041V4.50082V4.50124V4.50166V4.50208V4.5025V4.50292V4.50334V4.50375V4.50417V4.50459V4.50501V4.50543V4.50584V4.50626V4.50668V4.5071V4.50752V4.50793V4.50835V4.50877V4.50919V4.5096V4.51002V4.51044V4.51086V4.51127V4.51169V4.51211V4.51252V4.51294V4.51336V4.51378V4.51419V4.51461V4.51503V4.51544V4.51586V4.51628V4.51669V4.51711V4.51753V4.51794V4.51836V4.51877V4.51919V4.51961V4.52002V4.52044V4.52086V4.52127V4.52169V4.5221V4.52252V4.52293V4.52335V4.52377V4.52418V4.5246V4.52501V4.52543V4.52584V4.52626V4.52667V4.52709V4.52751V4.52792V4.52834V4.52875V4.52917V4.52958V4.53V4.53041V4.53083V4.53124V4.53165V4.53207V4.53248V4.5329V4.53331V4.53373V4.53414V4.53456V4.53497V4.53538V4.5358V4.53621V4.53663V4.53704V4.53745V4.53787V4.53828V4.5387V4.53911V4.53952V4.53994V4.54035V4.54076V4.54118V4.54159V4.542V4.54242V4.54283V4.54324V4.54366V4.54407V4.54448V4.5449V4.54531V4.54572V4.54614V4.54655V4.54696V4.54737V4.54779V4.5482V4.54861V4.54902V4.54944V4.54985V4.55026V4.55067V4.55109V4.5515V4.55191V4.55232V4.55273V4.55315V4.55356V4.55397V4.55438V4.55479V4.5552V4.55562V4.55603V4.55644V4.55685V4.55726V4.55767V4.55809V4.5585V4.55891V4.55932V4.55973V4.56014V4.56055V4.56096V4.56137V4.56178V4.5622V4.56261V4.56302V4.56343V4.56384V4.56425V4.56466V4.56507V4.56548V4.56589V4.5663V4.56671V4.56712V4.56753V4.56794V4.56835V4.56876V4.56917V4.56958V4.56999V4.5704V4.57081V4.57122V4.57163V4.57204V4.57245V4.57286V4.57327V4.57368V4.57409V4.57449V4.5749V4.57531V4.57572V4.57613V4.57654V4.57695V4.57736V4.57777V4.57818V4.57858V4.57899V4.5794V4.57981V4.58022V4.58063V4.58103V4.58144V4.58185V4.58226V4.58267V4.58308V4.58348V4.58389V4.5843V4.58471V4.58512V4.58552V4.58593V4.58634V4.58675V4.58715V4.58756V4.58797V4.58838V4.58878V4.58919V4.5896V4.59001V4.59041V4.59082V4.59123V4.59163V4.59204V4.59245V4.59285V4.59326V4.59367V4.59407V4.59448V4.59489V4.59529V4.5957V4.59611V4.59651V4.59692V4.59733V4.59773V4.59814V4.59854V4.59895V4.59936V4.59976V4.60017V4.60057V4.60098V4.60139V4.60179V4.6022V4.6026V4.60301V4.60341V4.60382V4.60422V4.60463V4.60503V4.60544V4.60585V4.60625V4.60666V4.66594L0.832311 4.71565C0.848994 4.74132 0.861461 4.76325 0.876382 4.7895C0.88644 4.80719 0.897612 4.82684 0.911941 4.85092C0.942415 4.90213 0.982302 4.96383 1.0378 5.01946C1.81419 5.80138 2.59358 6.5804 3.37206 7.35852C3.56654 7.5529 3.76096 7.74723 3.95527 7.94154C4.10955 8.09582 4.29015 8.19911 4.49443 8.2C4.69915 8.20088 4.88042 8.09875 5.03533 7.94384L7.99031 4.98885L10.9453 2.03386L10.9491 2.03006C10.9835 1.9957 11.03 1.94921 11.0694 1.89472C11.3595 1.49659 11.1437 0.930577 10.6654 0.819915C10.3755 0.750365 10.1491 0.870429 9.97815 1.04136L9.97806 1.04145C8.15278 2.86902 6.32522 4.69659 4.4976 6.52421L2.50774 4.53436C2.45627 4.48288 2.40443 4.43043 2.35215 4.37754C2.22812 4.25205 2.10167 4.12411 1.97195 4.00095C1.62219 3.66748 1.05713 3.77524 0.859216 4.21325L0.859181 4.21323L0.857645 4.21682L0.816171 4.31359Z" fill="white" stroke="white" stroke-width="0.4"/>
</svg>
