<svg xmlns="http://www.w3.org/2000/svg" style="display:none;">
    <symbol id="icon-fb" width="6" height="12" viewBox="0 0 6 12" fill="none">
        <path d="M4.867 6.47378H3.36283V11.9844H1.08388V6.47378H0V4.53714H1.08388V3.28391C1.08388 2.38772 1.50958 0.984375 338311 0.984375L5.07121 0.991437V2.87128H3.84639C3.64548 2.87128 3.36298 2.97166 3.36298 3.39917V4.53894H5.0661L4.867 647378Z" fill="currentColor"/>
    </symbol>
    <symbol id="icon-insta" viewBox="0 0 11 12" fill="none">
        <path d="M5.50044 0.989925C3.24765 0.989925 1.1084 0.789525 0.291289 2.88659C-0.0462261 3.75271 0.0027881 4.87756 0.0027881 6.4882C0.0027881 7.90155 -0.0425035 9.22989 0.291289 10.0892C1.10654 12.1875 3.26316 11.9865 5.4992 11.9865C7.65644 11.9865 9.8807 12.2111 10.7077 10.0892C11.0459 9.21438 10.9962 8.10629 10.9962 6.4882C10.9962 4.34026 11.1147 2.95359 10.073 1.91251C9.01829 0.857773 7.59192 0.989925 5.49796 0.989925H5.50044ZM5.00782 1.98076C9.70697 1.97331 10.3051 1.45091 9.975 8.70811C9.85774 11.2748 7.90338 10.9932 5.50106 10.9932C1.12081 10.9932 0.99486 10.8678 0.99486 6.48572C0.99486 2.05273 1.3423 1.98324 5.00782 1.97952V1.98076ZM8.43509 2.89341C8.07089 2.89341 7.77557 3.18874 7.77557 3.55293C7.77557 3.91713 8.07089 4.21245 8.43509 4.21245C8.79928 4.21245 9.09461 3.91713 9.09461 3.55293C9.09461 3.18874 8.79928 2.89341 8.43509 2.89341ZM5.50044 3.66461C3.94129 3.66461 2.67747 4.92905 2.67747 6.4882C2.67747 8.04735 3.94129 9.31117 5.50044 9.31117C7.05959 9.31117 8.32279 8.04735 8.32279 6.4882C8.32279 4.92905 7.05959 3.66461 5.50044 3.66461ZM5.50044 4.65544C7.92323 4.65544 7.92633 8.32096 5.50044 8.32096C3.07827 8.32096 3.07455 4.65544 5.50044 4.65544Z" fill="currentColor"/>
    </symbol>
    <symbol id="icon-twitter" width="10" height="10" viewBox="0 0 10 10" fill="none">
        <path d="M3.04662 6.83968C2.63951 6.83212 2.27016 6.6677 1.99715 6.40422C2.05866 6.39222 2.11945 6.37797 2.17939 6.36155L2.14564 5.3891C1.67832 5.2953 1.2868 4.99092 1.07397 4.5794C1.15329 4.58947 1.23371 4.59587 1.31504 4.59842L3.05991 4.65322L1.60862 3.683C1.19155 3.40419 0.918067 2.92898 0.918067 2.391C0.918067 2.36923 0.918513 2.34758 0.919397 2.32605C1.97537 3.30333 3.36536 3.92574 4.89973 4.00271L5.56307 4.03598L5.41161 3.38931C5.38529 3.27696 5.37139 3.15871 5.37139 3.03575C5.37139 2.17906 6.06631 1.48413 6.92301 1.48413C7.3701 1.48413 7.77299 1.67221 8.05641 1.97405L8.24589 2.17585L8.51749 2.12238C8.56229 2.11356 8.60687 2.10409 8.65121 2.09399L8.79599 2.51808C8.75909 2.54693 8.72163 2.57506 8.68364 2.60245L8.46429 2.76056L8.47652 3.03068C8.48015 3.11087 8.48198 3.19192 8.48198 3.27337C8.48198 5.76975 6.5847 8.61091 3.14459 8.61091C2.73798 8.61091 2.34227 8.56522 1.96207 8.47881C2.4678 8.30942 2.93473 8.05524 3.34574 7.73314L4.45254 6.86579L3.04662 6.83968Z" fill="currentColor" stroke="#7D8088"/>
    </symbol>
    <symbol id="icon-in" width="10" height="10" viewBox="0 0 10 10" fill="none">
        <path d="M10 5.85822V9.55586H7.85621V6.10603C7.85621 5.23982 7.54668 4.64827 6.77048 4.64827C6.17814 4.64827 5.82625 504652 5.67084 5.43215C5. 61441 5.56996 5.59986 5.76134 5.59986 5.95463V9.5557H3.45591C3.45591 9.5557 3.48468 3.71283 345591 3.10801H5.60002V4.02171C5.5957 4.02891 5.58963   4.03594 5.58579 4.04282H5.60002V4.02171C5.88492 3.58333 6.39301 295661 7.53214 2.95661C8.94257 2.95661 10 3.87814 10 5.85822ZM1.21315 0C0.479791     0 0 0.48139 0 1.11386C0 1.73291 0465882 2.22821 1.18501 2.22821H1.19892C1.94667 2.22821 2.41159 1.73291 2.41159 1.11386C2.39736 0.48139 1.94666 0  1.213150ZM0.127422 9.55586H2.27058V3.10801H0.127422V9.55586Z" fill="currentColor"/>
    </symbol>
</svg>
