<svg width="62" height="54" viewBox="0 0 62 54" fill="none" xmlns="http://www.w3.org/2000/svg">
<path d="M0.354905 10.3429C0.160897 4.68899 4.69174 0 10.349 0H31.4959C37.1382 0 41.6633 4.66519 41.4912 10.3049L40.7897 33.3049C40.625 38.7065 36.1985 43 30.7944 43H11.1382C5.74887 43 1.32894 38.7291 1.14412 33.3429L0.354905 10.3429Z" fill="url(#paint0_linear_2_102)" fill-opacity="0.5"/>
<path d="M25 25.3809C25 22.9654 25 20.5498 25 18.1343C25 17.2941 25.3046 17 26.1448 17C30.9969 17 35.8595 17 40.7116 17C41.5203 17 41.8354 17.3046 41.8354 18.1133C41.8354 22.9864 41.8354 27.849 41.8354 32.7221C41.8354 33.5308 41.5203 33.8354 40.7116 33.8354C35.8385 33.8354 30.9759 33.8354 26.1028 33.8354C25.3151 33.8354 25 33.5203 25 32.7431C25 30.2856 25 27.828 25 25.3809ZM26.7329 18.7224C26.7329 23.2069 26.7329 27.6494 26.7329 32.1025C31.1964 32.1025 35.6389 32.1025 40.092 32.1025C40.092 27.6284 40.092 23.1754 40.092 18.7224C35.6284 18.7224 31.1964 18.7224 26.7329 18.7224Z" fill="#404040"/>
<path d="M62 25.4124C62 27.8385 62 30.2645 62 32.7011C62 33.5308 61.6954 33.8354 60.8552 33.8354C56.0031 33.8354 51.1405 33.8354 46.2884 33.8354C45.4797 33.8354 45.1646 33.5308 45.1646 32.7221C45.1646 27.849 45.1646 22.9864 45.1646 18.1133C45.1646 17.3046 45.4692 17 46.2884 17C51.1615 17 56.0241 17 60.8972 17C61.6849 17 62 17.3151 62 18.0923C62 20.5288 62 22.9759 62 25.4124ZM60.2566 32.1025C60.2566 27.6179 60.2566 23.1754 60.2566 18.7329C55.7931 18.7329 51.3506 18.7329 46.908 18.7329C46.908 23.2069 46.908 27.66 46.908 32.1025C51.3716 32.1025 55.8036 32.1025 60.2566 32.1025Z" fill="#404040"/>
<path d="M25 45.577C25 43.1509 25 40.7249 25 38.2883C25 37.4586 25.3046 37.1541 26.1448 37.1541C30.9969 37.1541 35.8595 37.1541 40.7116 37.1541C41.5203 37.1541 41.8354 37.4586 41.8354 38.2673C41.8354 43.1404 41.8354 48.003 41.8354 52.8762C41.8354 53.6849 41.5203 53.9894 40.7116 53.9894C35.8385 53.9894 30.9759 53.9894 26.1028 53.9894C25.3151 53.9894 25 53.6743 25 52.8972C25 50.4606 25 48.0241 25 45.577ZM26.7224 52.2565C31.2069 52.2565 35.6494 52.2565 40.092 52.2565C40.092 47.793 40.092 43.3505 40.092 38.908C35.6179 38.908 31.1649 38.908 26.7224 38.908C26.7224 43.3715 26.7224 47.8035 26.7224 52.2565Z" fill="#404040"/>
<path d="M54.4383 44.7264C54.6168 44.7264 54.7638 44.7264 54.9004 44.7264C56.8853 44.7264 58.8598 44.7264 60.8447 44.7264C60.9708 44.7264 61.1073 44.7159 61.2333 44.7369C61.6639 44.7999 61.979 45.157 61.9895 45.5666C61.9895 45.9762 61.6849 46.3333 61.2543 46.4173C61.1283 46.4383 60.9918 46.4383 60.8657 46.4383C58.8808 46.4383 56.9063 46.4383 54.9214 46.4383C54.7743 46.4383 54.6378 46.4383 54.4383 46.4383C54.4383 46.6063 54.4383 46.7429 54.4383 46.8794C54.4383 48.8118 54.4383 50.7338 54.4383 52.6662C54.4383 52.7607 54.4383 52.8448 54.4383 52.9393C54.4278 53.5799 54.0917 54 53.5666 53.9895C53.0519 53.979 52.7264 53.5799 52.7264 52.9603C52.7264 51.7105 52.7264 50.4712 52.7264 49.2214C52.7264 48.3182 52.7264 47.415 52.7264 46.4383C52.5688 46.4383 52.4323 46.4383 52.2958 46.4383C50.3108 46.4383 48.3364 46.4383 46.3514 46.4383C46.2464 46.4383 46.1414 46.4383 46.0363 46.4383C45.5322 46.4068 45.1751 46.0497 45.1646 45.5876C45.1646 45.136 45.5217 44.7684 46.0153 44.7264C46.1204 44.7159 46.2254 44.7264 46.3304 44.7264C48.2944 44.7264 50.2688 44.7264 52.2328 44.7264C52.3798 44.7264 52.5163 44.7264 52.7159 44.7264C52.7159 44.5479 52.7159 44.3903 52.7159 44.2433C52.7159 42.2058 52.7159 40.1789 52.7159 38.1414C52.7159 37.7738 52.8314 37.4692 53.1675 37.2907C53.4615 37.1332 53.7451 37.1437 54.0182 37.3222C54.3437 37.5323 54.4173 37.8473 54.4173 38.2044C54.4173 40.2209 54.4173 42.2478 54.4173 44.2643C54.4383 44.4008 54.4383 44.5479 54.4383 44.7264Z" fill="#404040"/>
<defs>
<linearGradient id="paint0_linear_2_102" x1="8.36111" y1="25.0833" x2="45.273" y2="39.4927" gradientUnits="userSpaceOnUse">
<stop stop-color="#88FFFB"/>
<stop offset="1" stop-color="#7DFE95"/>
</linearGradient>
</defs>
</svg>
