<svg width="65" height="51" viewBox="0 0 65 51" fill="none" xmlns="http://www.w3.org/2000/svg">
<path d="M0.36539 10.3527C0.16571 4.69511 4.69804 0 10.3592 0H35.498C41.1438 0 45.6702 4.67062 45.4931 10.3136L44.6832 36.1302C44.5138 41.5284 40.0889 45.8167 34.6881 45.8167H11.2704C5.88478 45.8167 1.46653 41.5516 1.27657 36.1694L0.36539 10.3527Z" fill="url(#paint0_linear_2_115)" fill-opacity="0.5"/>
<path d="M51.1336 10.655C51.4695 10.655 51.8054 10.655 52.1308 10.655C52.3303 10.7075 52.5192 10.76 52.7187 10.8125C53.6949 11.1169 54.3877 11.7677 54.8916 12.6495C56.4032 15.2948 57.9252 17.9295 59.4263 20.5853C59.7098 21.0892 59.9512 21.5721 60.6335 21.5721C60.665 21.5721 60.707 21.593 60.7385 21.6035C62.2921 22.1704 63.2053 23.4405 63.2158 25.1201C63.2263 26.6947 63.2368 28.2692 63.2053 29.8543C63.1948 30.3057 63.2788 30.5891 63.7302 30.8095C64.4545 31.1664 64.7799 31.8593 65.0003 32.6045C65.0003 34.704 65.0003 36.8139 65.0003 38.9133C64.9688 38.9763 64.9373 39.0498 64.9163 39.1128C64.6959 39.8791 64.234 40.4669 63.5202 40.8133C63.2788 40.9288 63.2158 41.0652 63.2263 41.3067C63.2368 42.9862 63.2368 44.6658 63.2263 46.3453C63.2158 48.4762 61.6832 50.0718 59.5943 50.0718C49.4541 50.0823 39.3243 50.0823 29.1841 50.0613C28.6592 50.0613 28.1029 49.9353 27.6305 49.7044C26.2344 49.0326 25.5731 47.8674 25.5731 46.3243C25.5731 39.2702 25.5731 32.2162 25.5731 25.1516C25.5731 25.0466 25.5731 24.9416 25.5731 24.8472C25.6465 23.0207 27.0637 21.5406 28.8902 21.4356C29.8769 21.3831 30.8636 21.4146 31.8503 21.3831C32.0918 21.3726 32.3647 21.3096 32.5747 21.1942C37.2354 18.4964 41.8751 15.7671 46.5358 13.0904C48.0369 12.2296 49.4436 11.1694 51.1336 10.655ZM61.3683 30.3687C61.3788 30.2532 61.3893 30.1797 61.3893 30.1062C61.3893 28.4162 61.3893 26.7157 61.3893 25.0256C61.3893 24.8577 61.3788 24.6897 61.3263 24.5322C61.0954 23.6925 60.4236 23.1991 59.4893 23.1991C49.4226 23.1991 39.3453 23.1991 29.2785 23.1991C29.2051 23.1991 29.1211 23.1991 29.0476 23.2096C28.3443 23.2831 27.7985 23.64 27.536 24.2908C27.4101 24.5952 27.3786 24.9626 27.3786 25.309C27.3681 32.2581 27.3681 39.2177 27.3786 46.1669C27.3786 46.3558 27.3891 46.5552 27.4206 46.7442C27.515 47.437 27.9139 47.9304 28.5647 48.1508C28.8692 48.2558 29.2156 48.2768 29.5515 48.2768C35.073 48.2873 40.584 48.2768 46.1055 48.2768C50.5353 48.2768 54.9546 48.2663 59.3843 48.2873C60.7385 48.2978 61.4523 47.374 61.4103 46.2613C61.3683 44.6868 61.3998 43.1017 61.3998 41.5271C61.3998 41.4011 61.3893 41.2752 61.3788 41.1282C61.2108 41.1282 61.0744 41.1282 60.9274 41.1282C59.3214 41.1282 57.7153 41.1387 56.1197 41.1282C52.8236 41.0967 50.3778 38.399 50.6927 35.1554C50.9446 32.5311 53.2645 30.4001 55.9098 30.3687C57.5893 30.3477 59.2689 30.3687 60.9484 30.3687C61.0744 30.3687 61.2108 30.3687 61.3683 30.3687ZM58.9959 39.3122C60.0352 39.3122 61.0744 39.3122 62.1136 39.3122C62.8379 39.3122 63.1843 38.9868 63.1843 38.2625C63.1948 36.583 63.1948 34.9034 63.1843 33.2239C63.1843 32.5206 62.8484 32.1742 62.1451 32.1742C59.9827 32.1742 57.8098 32.1532 55.6474 32.2267C53.5899 32.2896 51.9944 34.5885 52.5612 36.583C53.0546 38.3045 54.3562 39.3017 56.1512 39.3122C57.1065 39.3122 58.0512 39.3122 58.9959 39.3122ZM35.9862 21.3096C35.9967 21.3411 35.9967 21.3726 36.0072 21.3936C36.9939 21.3936 37.9807 21.4041 38.9569 21.3831C39.1983 21.3726 39.4713 21.3096 39.6812 21.1942C44.0585 18.6538 48.4253 16.1135 52.8026 13.5627C52.9181 13.4893 53.0336 13.4158 53.17 13.3318C53.1071 13.2373 53.0756 13.1533 53.0126 13.0904C52.4457 12.3976 51.522 12.2611 50.6507 12.765C47.2077 14.7699 43.7646 16.7749 40.3215 18.7798C38.8834 19.6301 37.4348 20.4699 35.9862 21.3096ZM43.0928 21.3096C43.1033 21.3411 43.1138 21.3726 43.1243 21.4041C44.111 21.4041 45.0977 21.4146 46.074 21.3936C46.3049 21.3936 46.5568 21.3201 46.7563 21.2047C49.3701 19.6931 51.9839 18.171 54.5977 16.6489C54.7026 16.5859 54.8076 16.5124 54.9441 16.4285C54.6501 15.9141 54.3667 15.4207 54.0728 14.9064C50.3883 17.0583 46.7458 19.1787 43.0928 21.3096ZM57.7888 21.3726C57.1275 20.2179 56.4976 19.1262 55.8573 18.003C53.9468 19.1157 52.0678 20.2074 50.1784 21.3096C50.1889 21.3306 50.1993 21.3516 50.1993 21.3726C52.7187 21.3726 55.217 21.3726 57.7888 21.3726Z" fill="#404040"/>
<defs>
<linearGradient id="paint0_linear_2_115" x1="9.16334" y1="26.7264" x2="49.3091" y2="42.846" gradientUnits="userSpaceOnUse">
<stop stop-color="#88FFFB"/>
<stop offset="1" stop-color="#7DFE95"/>
</linearGradient>
</defs>
</svg>
