<svg width="64" height="52" viewBox="0 0 64 52" fill="none" xmlns="http://www.w3.org/2000/svg">
<path d="M0.36539 10.3527C0.16571 4.69511 4.69804 0 10.3592 0H35.498C41.1438 0 45.6702 4.67062 45.4931 10.3136L44.6832 36.1302C44.5138 41.5284 40.0889 45.8167 34.6881 45.8167H11.2704C5.88478 45.8167 1.46653 41.5516 1.27657 36.1694L0.36539 10.3527Z" fill="url(#paint0_linear_2_88)" fill-opacity="0.5"/>
<g clip-path="url(#clip0_2_88)">
<path d="M44.9842 13.9999C55.4418 13.9893 63.9472 22.4737 63.9894 32.8891C64.0317 43.4312 55.484 52.0421 44.8364 51.9999C34.5476 51.9577 26 43.4312 26 33.1002C26 22.5053 34.4315 14.0104 44.9842 13.9999ZM28.5326 32.9946C28.5537 42.0804 35.9511 49.4778 44.9842 49.4567C54.1016 49.4356 61.499 42.0171 61.4568 32.9313C61.4146 23.856 54.0172 16.5114 44.942 16.5325C35.9089 16.5431 28.501 23.9721 28.5326 32.9946Z" fill="#404040"/>
<path d="M43.7286 25.4496C43.7286 24.9747 43.7181 24.4998 43.7286 24.025C43.7392 23.3074 44.2773 22.7692 44.9738 22.7692C45.6914 22.7586 46.2401 23.3074 46.2507 24.0355C46.2612 24.4154 46.2718 24.8058 46.2401 25.1857C46.219 25.439 46.3246 25.5445 46.5567 25.6395C47.6647 26.0616 48.4562 26.8425 48.9522 27.9189C49.2476 28.552 49.0155 29.2591 48.414 29.5756C47.8019 29.9028 47.0632 29.7128 46.7044 29.0797C46.4195 28.5626 46.0713 28.1405 45.5014 27.9505C44.5306 27.6339 43.4542 28.2249 43.1799 29.2274C42.9055 30.2404 43.5492 31.3485 44.5728 31.5701C44.9527 31.6545 45.3537 31.665 45.7442 31.7389C47.8019 32.1083 49.4376 34.0921 49.3954 36.1499C49.3637 37.9122 48.2451 39.5162 46.5673 40.181C46.3246 40.276 46.2085 40.3815 46.2401 40.6559C46.2718 41.0147 46.2507 41.3629 46.2507 41.7217C46.2401 42.4287 45.6808 42.9669 44.9844 42.9669C44.2879 42.9669 43.7286 42.4182 43.7181 41.7217C43.7075 41.2574 43.7181 40.8036 43.7181 40.3182C43.5281 40.2338 43.3276 40.1599 43.1482 40.0755C42.209 39.6428 41.4915 38.9675 41.0271 38.0388C40.6472 37.2896 40.8372 36.5509 41.502 36.2027C42.1774 35.8439 42.9266 36.1183 43.3171 36.878C43.7075 37.6378 44.3618 38.0283 45.1321 37.9544C45.9341 37.8805 46.5462 37.3846 46.7783 36.6248C47.1371 35.4218 46.2612 34.2293 44.9633 34.1871C42.4623 34.1027 40.5206 32.066 40.5734 29.5756C40.6156 27.75 41.7447 26.1882 43.4648 25.5762C43.5492 25.5234 43.6336 25.4918 43.7286 25.4496Z" fill="#404040"/>
</g>
<defs>
<linearGradient id="paint0_linear_2_88" x1="9.16334" y1="26.7264" x2="49.3091" y2="42.846" gradientUnits="userSpaceOnUse">
<stop stop-color="#88FFFB"/>
<stop offset="1" stop-color="#7DFE95"/>
</linearGradient>
<clipPath id="clip0_2_88">
<rect width="37.9894" height="38" fill="white" transform="translate(26 14)"/>
</clipPath>
</defs>
</svg>
